<?xml version="1.0" encoding="utf-8"?>
<!-- Generator: Adobe Illustrator 24.1.2, SVG Export Plug-In . SVG Version: 6.00 Build 0)  -->
<svg version="1.1" id="Layer_1" xmlns="http://www.w3.org/2000/svg" xmlns:xlink="http://www.w3.org/1999/xlink" x="0px" y="0px"
	 viewBox="0 0 1371 1372.8" style="enable-background:new 0 0 1371 1372.8;" xml:space="preserve">
<style type="text/css">
	.st0{fill:#FFFF00;}
</style>
<g id="Layer_2_1_">
	
		<image style="overflow:visible;opacity:0.75;" width="1339" height="1340" xlink:href="1FE6401F.png"  transform="matrix(1 0 0 1 23 23.83)">
	</image>
	<g>
		<g>
			<g id="Layer_2-2_9_">
				<path class="st0" d="M698.2,697.6c0.6-15.4,0.8-26,0.8-31.8c0-22-6-37.6-18.1-46.7c-12.1-9.1-29.2-13.7-51.3-13.7
					c-24.2,0-45.7,2.7-64.3,8.1l-3.2,25.7c18.8-4.8,38.2-7.3,57.6-7.3c16.5,0,28.9,2.5,37,7.6c8.1,5.1,12.2,15.3,12.2,30.6
					c0,3.4-0.2,6.9-0.6,10.3c-43.9,0.6-73.9,6.7-90.1,18.4c-16.2,11.6-24.2,27-24.2,46.2c0,15.5,5.2,27.5,15.5,35.9
					c10.3,8.4,22.6,12.6,36.9,12.6c26.4,0,47.2-7,62.5-20.9h1.9c0.1,5.8,0.8,11.7,2.2,17.3l29.3-1.1c-3.4-17.7-5-37.8-5-60.4
					C697.4,723.2,697.6,713,698.2,697.6z M620.3,767.8c-23.9,0-35.8-8.5-35.8-25.4c0-17.5,10.2-29.4,30.6-35.6
					c12.2-3.5,30-5.2,53.3-5.2c0,15,0.3,32,0.9,50.9C657.2,762.7,640.9,767.8,620.3,767.8z"/>
				<path class="st0" d="M783.2,608l-37.3,5c4.4,24.4,6.5,54.5,6.5,90.5c0,32-0.9,60.4-2.6,85.2h33.8c-1.7-27-2.6-55.4-2.6-85.2
					C780.9,665.8,781.7,634,783.2,608z"/>
				<path class="st0" d="M771.6,535.2c-7.5,0-13.3,2.3-17.5,6.9c-4.1,4.4-6.4,10.2-6.3,16.2c-0.1,5.4,1.8,10.6,5.3,14.6
					c3.5,4,8.5,6.1,14.8,6.1c7.5,0,13.2-2.3,17.3-7c4.1-4.5,6.3-10.4,6.2-16.5c0.1-5.3-1.8-10.4-5.3-14.3
					C782.5,537.3,777.7,535.2,771.6,535.2z"/>
				<path class="st0" d="M864.7,635h-1.5c0-4.6-1.2-13.7-3.5-27.4l-32.6,4.7c5.9,27.8,8.9,56.2,8.8,84.7c0,21.8-1,52.4-3,91.8h33
					c-0.7-22.8-1.1-62.7-1.1-119.9c7-22.3,22.1-33.4,45.5-33.4c8.3,0,17.3,1.9,27,5.8l8.4-29.7c-13.2-4.1-24.5-6.2-33.9-6.2
					C893.8,605.3,878.1,615.2,864.7,635z"/>
				<path class="st0" d="M1054.4,603.3c-24.7,0-46.3,9-64.6,27c-18.3,18-27.5,43.1-27.5,75.2c0,28.7,8.3,51,24.9,66.8
					s36.5,23.7,59.6,23.7c24.7,0,46.3-8.9,64.6-26.8c18.3-17.8,27.4-42.7,27.4-74.5c0-29-8.3-51.4-24.8-67.4
					S1077.5,603.3,1054.4,603.3z M1092,751c-9.6,14.3-23.3,21.5-41.2,21.5c-18.2,0-32.1-7.5-41.9-22.6c-9.8-15-14.6-32.3-14.6-51.9
					c0-18.9,4.8-35.5,14.5-49.8c9.6-14.3,23.4-21.4,41.4-21.4c18,0,31.9,7.6,41.7,22.7c9.8,15.1,14.6,32.4,14.6,51.8
					C1106.4,720,1101.6,736.6,1092,751L1092,751z"/>
				<path class="st0" d="M1282.1,702.9c-8.1-6.3-20.5-12.8-37.3-19.4c-15.5-6.1-26-11.3-31.4-15.6c-5.2-4-8.2-10.3-8-16.9
					c0-13.8,11.9-20.7,35.8-20.7c17.7,0,33.2,2.7,46.6,8l5.8-26.9c-12.9-3.6-30.1-5.4-51.5-5.4c-21.9,0-38.2,5.1-48.9,15.2
					c-10.7,10.2-16,22.3-16,36.5c0,13.6,5.8,25.1,17.5,34.7c8,6.5,20.8,13.2,38.4,20.1c13.9,5.5,23.9,10.4,29.9,14.8
					c5.8,4,9.3,10.7,9.1,17.7c0,15.4-13.6,23.1-40.7,23.1c-18.9,0-36.4-3.1-52.6-9.3l-5.8,27.4c18.9,4.2,38.1,6.3,57.5,6.2
					c46.4,0,69.6-18.2,69.6-54.5C1300.2,724.5,1294.2,712.7,1282.1,702.9z"/>
				<path class="st0" d="M680.9,1036.8c-53.6-11.3-231.6-177-249.6-216.8l0.8-1c73.7,74.4,196.3,177.4,223.2,174.9
					c-0.1-0.3-0.2-0.6-0.3-0.9c0.4,0,0.9,0,1.3,0c-6.5-16.6-11.4-34-11.4-52c-50.1-5.9-166.5-101.7-197.4-144.7
					c39.9-68,39.8-152.2-0.1-220.1c30.1-42.6,147.5-139.5,197.9-145.4c0.1-18,4.9-35.4,11.4-52c-27-2.5-150.3,101.2-223.9,175.7
					l-0.5-0.6c15-37.7,195.9-206.5,250.1-217.9c-0.5-24.7,5.2-52.5,15.2-82.4c-29.9,10-57.7,15.8-82.4,15.2
					C603.8,322.7,437.2,501.5,398,518.7l-0.9-0.7c74.5-73.7,177.7-196.5,175.2-223.4l-0.9,0.3c0-0.4,0-0.9,0-1.3
					c-16.6,6.5-34,11.4-52,11.4c-5.9,50-101.1,165.9-144.3,197.1c-19.5-12.2-40.9-21.2-63.3-26.7c-8.7-51.9,5.9-202.5,37.3-242.2
					c-12.7-12.8-21.5-28.5-28.7-44.8c-20.8,17.3-34.7,177.7-34.1,282.4l-0.9-0.1c-15.9-37.9-7.4-284.5,22.8-330.7
					c-17.9-17.1-33.4-40.9-47.5-69c-14.1,28.2-29.7,52-47.5,69c30.2,46.2,38.7,292.1,22.9,330.6l-0.9,0.1
					c0.6-104.8-13.3-265-34.1-282.2c-0.1,0.3-0.3,0.6-0.4,0.9c-0.3-0.3-0.6-0.6-0.9-0.9c-7.2,16.4-16,32.1-28.7,44.8
					c31.3,39.7,45.9,190.2,37.2,242.2c-58.2,14.3-108,52-137.5,104.2c33.5-44.5,86-70.7,141.7-70.6c98,0,177.4,79.4,177.4,177.4
					s-79.4,177.4-177.4,177.4c-55.7,0-108.2-26.1-141.7-70.6c29.6,52.3,79.5,90.1,137.9,104.4c8.6,52-6,202.4-37.3,242.1
					c12.7,12.8,21.5,28.5,28.7,44.8c20.8-17.3,34.7-177.6,34.1-282.3l0.9,0.1c15.9,38.1,7.3,284.4-22.9,330.7
					c17.9,17.1,33.4,40.8,47.5,69c14.1-28.2,29.7-52,47.5-69c-30.2-46.2-38.7-292.4-22.9-330.6l0.9-0.1
					c-0.6,104.7,13.3,265,34.1,282.3c0.1-0.3,0.3-0.6,0.4-0.9c0.3,0.3,0.6,0.6,0.9,0.9c7.2-16.4,16-32.1,28.7-44.8
					c-31.4-39.7-45.9-190.5-37.2-242.3c22.4-5.5,43.7-14.6,63.3-26.9c43.6,32.2,137.6,146.9,143.4,196.5c18,0.1,35.4,4.9,52,11.4
					c2.6-26.8-100.1-149.1-174.5-222.8l1.1-0.9c40.7,19.3,205,195.9,216.2,249.4c24.7-0.5,52.5,5.2,82.4,15.2
					C686.2,1089.3,680.4,1061.5,680.9,1036.8z"/>
			</g>
		</g>
	</g>
</g>
</svg>
