<svg xmlns="http://www.w3.org/2000/svg" viewBox="0 0 20.13 20.13"><defs><style>.cls-1{fill:#003854;}</style></defs><g id="Layer_2" data-name="Layer 2"><g id="Layer_1-2" data-name="Layer 1"><path class="cls-1" d="M3.78,12.58A3.78,3.78,0,0,1,2.59,5.22,4.43,4.43,0,0,1,6.92,0a4.39,4.39,0,0,1,3.9,2.36,3.15,3.15,0,0,1,5.54,2,3.2,3.2,0,0,1-.07.63h.07a3.78,3.78,0,0,1,0,7.55Zm-.57,1.33a1,1,0,0,1,.49,1.24L1.81,19.56a.94.94,0,0,1-1.73-.75L2,14.41a1,1,0,0,1,1.24-.5Zm4.71,0a1,1,0,0,1,.5,1.24L6.53,19.56a.94.94,0,1,1-1.73-.75l1.88-4.4A1,1,0,0,1,7.92,13.91Zm9.62,1.24-1.89,4.41a.94.94,0,0,1-1.73-.75l1.89-4.4a.94.94,0,0,1,1.23-.5A1,1,0,0,1,17.54,15.15Zm-5.21-1.24a.94.94,0,0,1,.49,1.24l-1.89,4.41a.92.92,0,0,1-1.23.49,1,1,0,0,1-.5-1.24l1.89-4.4A1,1,0,0,1,12.33,13.91Z"/></g></g></svg>