<svg xmlns="http://www.w3.org/2000/svg" viewBox="0 0 26.74 23.86"><defs><style>.cls-1{fill:#003854;}</style></defs><g id="Layer_2" data-name="Layer 2"><g id="Layer_1-2" data-name="Layer 1"><path class="cls-1" d="M22.91,21.69c.86,0,1.57,0,2.27,0a3.66,3.66,0,0,1,.88.12.94.94,0,0,1,.68,1,1,1,0,0,1-.8,1,2.88,2.88,0,0,1-.59.05H1.3c-.48,0-1,0-1.18-.51a1.29,1.29,0,0,1,0-1.09,1.89,1.89,0,0,1,1.16-.55,24.26,24.26,0,0,1,2.43,0c-.14-.24-.21-.39-.31-.53-.57-.82-1.15-1.63-1.7-2.46a1.12,1.12,0,0,1,.77-1.87c1.29-.25,2.58-.5,3.88-.72.41-.07.61-.21.68-.65.21-1.28.46-2.55.7-3.82s1-1.45,2-.79,2.08,1.4,3.09,2.14a.78.78,0,0,0,1.1,0c1-.74,2.06-1.44,3.1-2.14s1.7-.36,1.93.75c.26,1.27.49,2.55.71,3.82.06.4.2.63.65.7,1.18.18,2.34.47,3.52.62,1.38.17,1.91,1.11,1,2.28C24.11,19.81,23.59,20.7,22.91,21.69Zm-18.57-3C5,19.61,5.53,20.38,6,21.2s1.24.43,1.88.44c.16,0,.38-.47.47-.76A5.21,5.21,0,0,1,13,17.24a5.14,5.14,0,0,1,5.18,3.38c.4,1.08.4,1.06,1.55,1.07a.89.89,0,0,0,.87-.47c.45-.7.94-1.38,1.41-2.07.08-.13.13-.27.22-.44-.25-.07-.43-.13-.63-.17-.92-.17-1.83-.36-2.76-.51a1.16,1.16,0,0,1-1.12-1.1c-.06-.5-.18-1-.28-1.47-.13-.65-.27-1.3-.42-2-.77.53-1.43,1-2.08,1.43-1.66,1.19-1.59,1.17-3.26,0L9.62,13.43c-.23,1.16-.45,2.19-.64,3.22s-.27,1.19-1.42,1.41Zm11.88,2.95A2.93,2.93,0,0,0,13,19.41a2.71,2.71,0,0,0-2.43,2.24Z"/><path class="cls-1" d="M14.44,4V5.55c0,1.12,0,2.24,0,3.35a2.36,2.36,0,0,1-.14.88,1,1,0,0,1-1,.6.92.92,0,0,1-.93-.7,3.77,3.77,0,0,1-.11-1c0-1.57,0-3.14,0-4.84a5.44,5.44,0,0,0-.46.33c-.48.48-.95,1-1.45,1.43a1,1,0,0,1-1.46,0,1.06,1.06,0,0,1-.13-1.41A2.12,2.12,0,0,1,9,3.84L12.33.55c.75-.73,1.27-.73,2,0,1.11,1.09,2.22,2.18,3.29,3.31a1.7,1.7,0,0,1,.49,1.08,1.46,1.46,0,0,1-.68.87.87.87,0,0,1-1.13-.25c-.56-.57-1.1-1.15-1.64-1.72Z"/></g></g></svg>