<svg xmlns="http://www.w3.org/2000/svg" viewBox="0 0 27.51 24.44"><defs><style>.cls-1{fill:#003854;}</style></defs><g id="Layer_2" data-name="Layer 2"><g id="Layer_1-2" data-name="Layer 1"><path class="cls-1" d="M4,22.22c-.75-1.08-1.4-2-2-2.93s-.38-1.85.85-2.08,2.6-.51,3.91-.73a.63.63,0,0,0,.61-.61c.22-1.33.48-2.65.73-4a1.16,1.16,0,0,1,2-.81c1.11.76,2.23,1.52,3.32,2.3a.63.63,0,0,0,.87,0c1.05-.75,2.12-1.46,3.18-2.19s1.91-.5,2.18.88c.24,1.22.47,2.44.65,3.67a.77.77,0,0,0,.76.77c1.3.21,2.61.46,3.91.72,1.09.22,1.41,1,.78,1.95l-2,3a5.58,5.58,0,0,0,.59.06c.69,0,1.39,0,2.08,0a1.15,1.15,0,0,1,1.22,1.18c0,.66-.49,1-1.27,1h-25C.49,24.44,0,24,0,23.33a1.17,1.17,0,0,1,1.24-1.11C2.09,22.19,2.94,22.22,4,22.22Zm.6-3.06c.63.94,1.22,1.73,1.72,2.56s1.24.43,1.88.48.43-.52.53-.82a5.36,5.36,0,0,1,4.71-3.72,5.27,5.27,0,0,1,5.34,3.42c.45,1.18.45,1.2,1.74,1.12a1.11,1.11,0,0,0,.68-.38c.54-.72,1-1.48,1.53-2.22.08-.12.13-.27.23-.47-1.22-.23-2.35-.46-3.5-.66a1.19,1.19,0,0,1-1.13-1.09c-.06-.5-.18-1-.28-1.5-.14-.68-.28-1.36-.44-2.12l-3,2.1a1.17,1.17,0,0,1-1.47,0l-2-1.35L10,13.77C9.72,14.93,9.5,16,9.31,17c-.23,1.22-.28,1.27-1.48,1.51S5.72,18.92,4.55,19.16Zm6.29,3h5.87a3,3,0,0,0-3.17-2.28A2.89,2.89,0,0,0,10.84,22.15Z"/><path class="cls-1" d="M12.64,6.6V6c0-1.53,0-3.07,0-4.6,0-1.08.8-1.63,1.64-1.2a1.24,1.24,0,0,1,.61,1.25c0,1.53,0,3.06,0,4.6v.74c.24-.19.38-.28.5-.4.49-.47.95-1,1.44-1.42a1.11,1.11,0,0,1,1.55,0,1,1,0,0,1,0,1.49q-1.92,2-3.9,3.9A1,1,0,0,1,13,10.29c-1.25-1.23-2.5-2.47-3.73-3.73a1.08,1.08,0,0,1-.07-1.63A1.12,1.12,0,0,1,10.8,5c.55.54,1.07,1.12,1.6,1.68Z"/></g></g></svg>