<svg xmlns="http://www.w3.org/2000/svg" viewBox="0 0 19.92 19.92"><defs><style>.cls-1{fill:#003854;}</style></defs><g id="Layer_2" data-name="Layer 2"><g id="Layer_1-2" data-name="Layer 1"><path class="cls-1" d="M11.2,1.24a1.25,1.25,0,0,0,1.25,1.25h1.24a1.25,1.25,0,1,1,0,2.49H1.24a1.25,1.25,0,0,0,0,2.49H13.69a3.74,3.74,0,1,0,0-7.47H12.45A1.25,1.25,0,0,0,11.2,1.24Zm2.49,13.7a1.24,1.24,0,0,0,1.25,1.24h1.24a3.74,3.74,0,1,0,0-7.47H1.24a1.25,1.25,0,0,0,0,2.49H16.18a1.25,1.25,0,1,1,0,2.49H14.94A1.25,1.25,0,0,0,13.69,14.94ZM5,19.92H6.22a3.74,3.74,0,1,0,0-7.47h-5a1.25,1.25,0,0,0,0,2.49h5a1.25,1.25,0,1,1,0,2.49H5a1.25,1.25,0,1,0,0,2.49Z"/></g></g></svg>