<svg xmlns="http://www.w3.org/2000/svg" viewBox="0 0 201.83 187.21"><defs><style>.cls-1{fill:#dcedff;}</style></defs><g id="Layer_2" data-name="Layer 2"><g id="Layer_1-2" data-name="Layer 1"><path class="cls-1" d="M182.41,67.55l-.24,0A29.32,29.32,0,0,0,139.66,31.1a40.83,40.83,0,0,0-78.6,15.52,39.67,39.67,0,0,0,.35,5h-.35a27.38,27.38,0,0,0,0,54.75H182.41a19.42,19.42,0,1,0,0-38.83Z"/><circle class="cls-1" cx="80.2" cy="133.07" r="5.99"/><circle class="cls-1" cx="117.76" cy="133.07" r="5.99"/><circle class="cls-1" cx="117.76" cy="181.22" r="5.99"/><circle class="cls-1" cx="97.78" cy="156.64" r="5.99"/><path class="cls-1" d="M144.13,156.64a6,6,0,1,1-6-6A6,6,0,0,1,144.13,156.64Z"/><circle class="cls-1" cx="155.31" cy="133.07" r="5.99"/><rect class="cls-1" x="25.56" width="4.96" height="56.08" rx="2.48"/><path class="cls-1" d="M37.8,4.08a1.67,1.67,0,0,1,0,2.36l-9.71,9.72,0,0-.05,0L18.29,6.44a1.67,1.67,0,0,1,0-2.37l1.14-1.13a1.67,1.67,0,0,1,2.37,0L26.86,8a1.67,1.67,0,0,0,2.37,0l5.06-5.06a1.67,1.67,0,0,1,2.37,0Z"/><path class="cls-1" d="M18.29,52a1.67,1.67,0,0,1,0-2.37L28,39.92l0,0,0,0,9.72,9.72a1.68,1.68,0,0,1,0,2.37l-1.15,1.14a1.67,1.67,0,0,1-2.36,0l-5.07-5.07a1.68,1.68,0,0,0-2.37,0l-5.06,5.07a1.68,1.68,0,0,1-2.37,0Z"/><rect class="cls-1" x="25.56" width="4.96" height="56.08" rx="2.48" transform="translate(56.08 0) rotate(90)"/><path class="cls-1" d="M52,37.8a1.68,1.68,0,0,1-2.37,0l-9.72-9.71,0,0,0-.05,9.72-9.71a1.67,1.67,0,0,1,2.37,0l1.14,1.14a1.68,1.68,0,0,1,0,2.37l-5.07,5.06a1.68,1.68,0,0,0,0,2.37l5.07,5.06a1.68,1.68,0,0,1,0,2.37Z"/><path class="cls-1" d="M4.08,18.29a1.65,1.65,0,0,1,2.36,0L16.16,28l0,0,0,0L6.44,37.8a1.68,1.68,0,0,1-2.37,0L2.94,36.65a1.65,1.65,0,0,1,0-2.36L8,29.22a1.67,1.67,0,0,0,0-2.37L2.94,21.79a1.67,1.67,0,0,1,0-2.37Z"/><path class="cls-1" d="M10.77,26.37H45.31A1.67,1.67,0,0,1,47,28v0a1.68,1.68,0,0,1-1.68,1.68H10.77A1.67,1.67,0,0,1,9.1,28v0A1.67,1.67,0,0,1,10.77,26.37Z" transform="translate(-11.62 28.04) rotate(-45)"/><path class="cls-1" d="M44.15,20.71a1.67,1.67,0,0,1-1.67,1.67H33.74v0h0V13.61a1.66,1.66,0,0,1,1.68-1.67h0a1.67,1.67,0,0,1,1.67,1.67v3.75A1.68,1.68,0,0,0,38.73,19h3.75a1.67,1.67,0,0,1,1.67,1.67Z"/><path class="cls-1" d="M11.93,35.37a1.68,1.68,0,0,1,1.68-1.67h8.74v0h0v8.73a1.68,1.68,0,0,1-1.67,1.68h0A1.68,1.68,0,0,1,19,42.47V38.72a1.67,1.67,0,0,0-1.67-1.67H13.61a1.68,1.68,0,0,1-1.68-1.68Z"/><path class="cls-1" d="M28,9.1h0a1.67,1.67,0,0,1,1.67,1.67V45.31A1.67,1.67,0,0,1,28,47h0a1.68,1.68,0,0,1-1.68-1.68V10.77A1.67,1.67,0,0,1,28,9.1Z" transform="translate(-11.62 28.04) rotate(-45)"/><path class="cls-1" d="M35.37,44.15a1.67,1.67,0,0,1-1.67-1.67V33.74h0v0h8.73a1.68,1.68,0,0,1,1.68,1.68h0a1.68,1.68,0,0,1-1.68,1.67H38.72a1.68,1.68,0,0,0-1.67,1.68v3.75a1.68,1.68,0,0,1-1.68,1.67Z"/><path class="cls-1" d="M20.71,11.93a1.67,1.67,0,0,1,1.67,1.68v8.74h0v0H13.61a1.66,1.66,0,0,1-1.67-1.67h0A1.68,1.68,0,0,1,13.61,19h3.75A1.68,1.68,0,0,0,19,17.36V13.61a1.68,1.68,0,0,1,1.67-1.68Z"/></g></g></svg>