<svg xmlns="http://www.w3.org/2000/svg" viewBox="0 0 168.14 171.16"><defs><style>.cls-1{fill:#b9d7ff;}.cls-2{fill:#fff800;}.cls-3{fill:#dcedff;}</style></defs><g id="Layer_2" data-name="Layer 2"><g id="Layer_1-2" data-name="Layer 1"><path class="cls-1" d="M148.72,61.76l-.24,0A29.32,29.32,0,0,0,106,25.31,40.83,40.83,0,0,0,27.38,40.83a39.55,39.55,0,0,0,.34,5h-.34a27.38,27.38,0,1,0,0,54.75H148.72a19.42,19.42,0,1,0,0-38.83Z"/><polygon class="cls-2" points="125.21 106.67 114.7 138.68 129.19 138.68 119.8 171.16 154.03 125.3 136.36 125.3 143.05 106.67 125.21 106.67"/><circle class="cls-3" cx="49.39" cy="162.99" r="5.99"/><path class="cls-3" d="M75.76,138.42a6,6,0,1,1-6-6A6,6,0,0,1,75.76,138.42Z"/><circle class="cls-3" cx="86.94" cy="114.84" r="5.99"/><path class="cls-3" d="M81.75,160.74a6,6,0,1,1-6-6A6,6,0,0,1,81.75,160.74Z"/><circle class="cls-3" cx="92.94" cy="137.16" r="5.99"/><rect class="cls-3" x="26.29" y="108.16" width="3.32" height="37.48" rx="1.66"/><path class="cls-3" d="M34.47,110.88a1.13,1.13,0,0,1,0,1.58L28,119l0,0,0,0-6.49-6.49a1.11,1.11,0,0,1,0-1.58l.76-.76a1.12,1.12,0,0,1,1.59,0l3.38,3.38a1.11,1.11,0,0,0,1.58,0l3.39-3.38a1.11,1.11,0,0,1,1.58,0Z"/><path class="cls-3" d="M21.43,142.91a1.11,1.11,0,0,1,0-1.58l6.49-6.49,0,0,0,0,6.5,6.49a1.13,1.13,0,0,1,0,1.58l-.77.76a1.11,1.11,0,0,1-1.58,0l-3.38-3.38a1.12,1.12,0,0,0-1.59,0l-3.38,3.38a1.11,1.11,0,0,1-1.58,0Z"/><rect class="cls-3" x="26.29" y="108.16" width="3.32" height="37.48" rx="1.66" transform="translate(154.84 98.95) rotate(90)"/><path class="cls-3" d="M44,133.41a1.11,1.11,0,0,1-1.58,0l-6.49-6.49,0,0,0,0,6.49-6.49a1.11,1.11,0,0,1,1.58,0l.77.76a1.13,1.13,0,0,1,0,1.58l-3.39,3.39a1.11,1.11,0,0,0,0,1.58l3.38,3.38a1.11,1.11,0,0,1,0,1.58Z"/><path class="cls-3" d="M11.93,120.38a1.11,1.11,0,0,1,1.58,0l6.5,6.48,0,0,0,0-6.49,6.49a1.12,1.12,0,0,1-1.59,0l-.76-.76a1.11,1.11,0,0,1,0-1.58l3.39-3.39a1.13,1.13,0,0,0,0-1.58l-3.39-3.38a1.13,1.13,0,0,1,0-1.58Z"/><rect class="cls-3" x="15.29" y="125.77" width="25.32" height="2.24" rx="1.12" transform="translate(-81.54 56.93) rotate(-45)"/><path class="cls-3" d="M38.71,122a1.12,1.12,0,0,1-1.12,1.11H31.76v0h0v-5.84a1.12,1.12,0,0,1,1.12-1.12h0A1.12,1.12,0,0,1,34,117.25v2.51a1.12,1.12,0,0,0,1.12,1.12h2.5A1.12,1.12,0,0,1,38.71,122Z"/><path class="cls-3" d="M17.18,131.79a1.13,1.13,0,0,1,1.12-1.12h5.84v0h0v5.84a1.12,1.12,0,0,1-1.12,1.12h0a1.12,1.12,0,0,1-1.12-1.12V134a1.12,1.12,0,0,0-1.12-1.12H18.3a1.12,1.12,0,0,1-1.12-1.12Z"/><rect class="cls-3" x="26.83" y="114.24" width="2.24" height="25.32" rx="1.12" transform="translate(-81.54 56.93) rotate(-45)"/><path class="cls-3" d="M32.85,137.66a1.12,1.12,0,0,1-1.12-1.12V130.7h0v0h5.84a1.12,1.12,0,0,1,1.12,1.12h0a1.12,1.12,0,0,1-1.12,1.11H35.08A1.12,1.12,0,0,0,34,134v2.51a1.12,1.12,0,0,1-1.12,1.12Z"/><path class="cls-3" d="M23.05,116.13a1.12,1.12,0,0,1,1.12,1.12v5.84h0v0H18.3A1.11,1.11,0,0,1,17.19,122h0a1.12,1.12,0,0,1,1.11-1.12h2.51a1.12,1.12,0,0,0,1.12-1.12v-2.5a1.12,1.12,0,0,1,1.12-1.12Z"/></g></g></svg>