<svg xmlns="http://www.w3.org/2000/svg" viewBox="0 0 151.65 151.65"><defs><style>.cls-1{fill:#fff800;}</style></defs><g id="Layer_2" data-name="Layer 2"><g id="Layer_1-2" data-name="Layer 1"><circle class="cls-1" cx="75.82" cy="75.82" r="30.67" transform="translate(-25.93 42) rotate(-26.61)"/><path class="cls-1" d="M75.82,33.51h0a3.67,3.67,0,0,1-3.67-3.68V3.68A3.67,3.67,0,0,1,75.82,0h0A3.68,3.68,0,0,1,79.5,3.68V29.83A3.68,3.68,0,0,1,75.82,33.51Z"/><path class="cls-1" d="M75.82,151.65h0A3.67,3.67,0,0,1,72.15,148V121.82a3.67,3.67,0,0,1,3.67-3.68h0a3.68,3.68,0,0,1,3.68,3.68V148A3.68,3.68,0,0,1,75.82,151.65Z"/><path class="cls-1" d="M105.75,45.9h0a3.67,3.67,0,0,1,0-5.2l18.49-18.49a3.67,3.67,0,0,1,5.2,0h0a3.69,3.69,0,0,1,0,5.2L111,45.9A3.67,3.67,0,0,1,105.75,45.9Z"/><path class="cls-1" d="M22.21,129.44h0a3.67,3.67,0,0,1,0-5.2L40.7,105.75a3.67,3.67,0,0,1,5.2,0h0a3.67,3.67,0,0,1,0,5.2L27.41,129.44A3.69,3.69,0,0,1,22.21,129.44Z"/><path class="cls-1" d="M118.14,75.82h0a3.67,3.67,0,0,1,3.68-3.67H148a3.67,3.67,0,0,1,3.68,3.67h0A3.68,3.68,0,0,1,148,79.5H121.82A3.68,3.68,0,0,1,118.14,75.82Z"/><path class="cls-1" d="M0,75.82H0a3.67,3.67,0,0,1,3.68-3.67H29.83a3.67,3.67,0,0,1,3.68,3.67h0a3.68,3.68,0,0,1-3.68,3.68H3.68A3.68,3.68,0,0,1,0,75.82Z"/><path class="cls-1" d="M105.75,105.75h0a3.67,3.67,0,0,1,5.2,0l18.49,18.49a3.69,3.69,0,0,1,0,5.2h0a3.69,3.69,0,0,1-5.2,0L105.75,111A3.67,3.67,0,0,1,105.75,105.75Z"/><path class="cls-1" d="M22.21,22.21h0a3.67,3.67,0,0,1,5.2,0L45.9,40.7a3.67,3.67,0,0,1,0,5.2h0a3.67,3.67,0,0,1-5.2,0L22.21,27.41A3.67,3.67,0,0,1,22.21,22.21Z"/></g></g></svg>