<?xml version="1.0" encoding="utf-8"?>
<!-- Generator: Adobe Illustrator 24.1.2, SVG Export Plug-In . SVG Version: 6.00 Build 0)  -->
<svg version="1.1" id="Layer_1" xmlns="http://www.w3.org/2000/svg" xmlns:xlink="http://www.w3.org/1999/xlink" x="0px" y="0px"
	 viewBox="0 0 168.1 156.2" style="enable-background:new 0 0 168.1 156.2;" xml:space="preserve">
<style type="text/css">
	.st0{fill:#DCEDFF;}
	.st1{fill:#B9D7FF;}
</style>
<g id="Layer_2_1_">
	<g id="Layer_1-2">
		<path class="st0" d="M97.1,40.3L97.1,40.3c4-9.7-0.4-20.8-10-25c-5.8-2.5-12.4-2-17.7,1.3C64,3,48.6-3.6,34.9,2
			c-11.3,4.5-18,16-16.5,27.9h-0.2C8.4,29.7,0.2,37.5,0,47.4s7.7,17.9,17.5,18.1c0.3,0,0.5,0,0.8,0H97c7,0.2,12.8-5.4,13-12.3
			c0.2-6.9-5.4-12.8-12.3-13C97.5,40.3,97.3,40.3,97.1,40.3L97.1,40.3z"/>
		<path class="st1" d="M55.4,82.8c-0.2,0-0.4,0-0.7,0c-8,0.2-14.5,7-14.3,15.1c0.2,8,6.9,14.5,15.1,14.3H147c0.3,0,0.6,0,0.9,0
			c11.4-0.2,20.5-9.6,20.3-21.1s-9.7-20.5-21.2-20.3h-0.2c1.8-13.8-6-27.2-19.2-32.4c-15.8-6.5-33.8,1.2-40.1,16.9
			c-6.1-3.9-13.8-4.5-20.5-1.6c-11.2,4.9-16.3,17.8-11.5,29.1H55.4L55.4,82.8z"/>
		<path class="st0" d="M121.8,124.5c-0.1,0-0.1,0-0.2,0c5.2-12.2-0.4-26.2-12.6-31.4c-7.2-3.1-15.5-2.5-22.1,1.7
			c-7-17.1-26.4-25.2-43.5-18.3c-12.6,5.1-20.7,17.3-20.7,30.9c0,1.4,0.1,2.7,0.3,4.1h-0.3c-12.4-0.3-22.6,9.5-22.8,21.9
			c-0.2,12.4,9.6,22.6,22,22.8c0.3,0,0.6,0,0.9,0h99.1c8.8,0.2,16-6.7,16.2-15.5s-6.7-16-15.5-16.2
			C122.3,124.5,122.1,124.5,121.8,124.5L121.8,124.5z"/>
	</g>
</g>
</svg>
