<?xml version="1.0" encoding="utf-8"?>
<!-- Generator: Adobe Illustrator 24.1.2, SVG Export Plug-In . SVG Version: 6.00 Build 0)  -->
<svg version="1.1" id="Layer_1" xmlns="http://www.w3.org/2000/svg" xmlns:xlink="http://www.w3.org/1999/xlink" x="0px" y="0px"
	 viewBox="0 0 168.1 189" style="enable-background:new 0 0 168.1 189;" xml:space="preserve">
<style type="text/css">
	.st0{fill:#003854;}
	.st1{fill:#2B8EAD;}
	.st2{fill:#FFF800;}
</style>
<g id="Layer_2_1_">
	<g id="Layer_1-2">
		<path class="st0" d="M148.7,61.8h-0.2c6.4-14.9-0.5-32.1-15.3-38.5c-8.8-3.8-19-3-27.1,2.1C97.5,4.4,73.6-5.6,52.8,3
			C37.4,9.3,27.4,24.2,27.4,40.8c0,1.7,0.1,3.3,0.3,5h-0.3C12.3,45.5-0.2,57.6-0.5,72.7s11.7,27.6,26.9,27.9c0.3,0,0.7,0,1,0h121.3
			c10.7,0.2,19.6-8.3,19.9-19c0.2-10.7-8.3-19.6-19-19.9C149.3,61.7,149,61.7,148.7,61.8L148.7,61.8z"/>
		<path class="st1" d="M36.4,148.4c-3.3,6.9-11.6,9.7-18.4,6.4s-9.7-11.6-6.4-18.4c3.3-6.9,24.6-19.4,24.6-19.4
			S39.7,141.6,36.4,148.4z"/>
		<path class="st1" d="M78.9,145.1c-3.3,6.9-11.6,9.7-18.4,6.4s-9.7-11.6-6.4-18.4c3.3-6.9,24.6-19.4,24.6-19.4
			S82.2,138.2,78.9,145.1z"/>
		<polygon class="st2" points="115.1,108 102.6,146 119.8,146 108.6,184.6 149.3,130.1 128.3,130.1 136.3,108 		"/>
	</g>
</g>
</svg>
