<?xml version="1.0" encoding="utf-8"?>
<!-- Generator: Adobe Illustrator 24.1.2, SVG Export Plug-In . SVG Version: 6.00 Build 0)  -->
<svg version="1.1" id="Layer_1" xmlns="http://www.w3.org/2000/svg" xmlns:xlink="http://www.w3.org/1999/xlink" x="0px" y="0px"
	 viewBox="0 0 168.1 143.1" style="enable-background:new 0 0 168.1 143.1;" xml:space="preserve">
<style type="text/css">
	.st0{fill:#FFF800;}
	.st1{fill:#003854;}
</style>
<g id="Layer_2_1_">
	<g id="Layer_1-2">
		<path class="st0" d="M131.2,62.2c4.5,0,9-1.1,13-3.3c-13.2,14.2-35.3,15-49.5,1.8s-15-35.3-1.8-49.5s35.3-15,49.5-1.8
			c0.6,0.6,1.2,1.2,1.8,1.8C131,4,114.6,8.9,107.4,22.1s-2.3,29.7,10.9,36.8C122.3,61.1,126.7,62.2,131.2,62.2L131.2,62.2z"/>
		<path class="st1" d="M148.7,104.3c-0.1,0-0.2,0-0.2,0c6.4-14.9-0.4-32.1-15.3-38.5c-8.8-3.8-19-3-27.2,2.1
			c-8.5-20.9-32.3-30.9-53.2-22.4c-15.4,6.3-25.5,21.3-25.4,37.9c0,1.7,0.1,3.3,0.3,5h-0.3C12.3,88-0.2,100.1-0.5,115.2
			s11.7,27.6,26.9,27.9c0.3,0,0.7,0,1,0h121.3c10.7,0.2,19.6-8.3,19.9-19c0.2-10.7-8.3-19.6-19-19.9
			C149.3,104.2,149,104.2,148.7,104.3L148.7,104.3z"/>
	</g>
</g>
</svg>
