<?xml version="1.0" encoding="utf-8"?>
<!-- Generator: Adobe Illustrator 24.1.2, SVG Export Plug-In . SVG Version: 6.00 Build 0)  -->
<svg version="1.1" id="Layer_1" xmlns="http://www.w3.org/2000/svg" xmlns:xlink="http://www.w3.org/1999/xlink" x="0px" y="0px"
	 viewBox="0 0 201.8 187.2" style="enable-background:new 0 0 201.8 187.2;" xml:space="preserve">
<style type="text/css">
	.st0{fill:#003854;}
	.st1{fill:#2B8EAD;}
</style>
<g id="Layer_2_1_">
	<g id="Layer_1-2">
		<path class="st0" d="M182.4,67.6h-0.2c6.4-14.9-0.4-32.1-15.3-38.5c-8.9-3.8-19-3-27.2,2.1c-8.6-20.9-32.4-30.8-53.3-22.3
			c-15.3,6.3-25.3,21.2-25.3,37.8c0,1.7,0.1,3.3,0.3,5h-0.3c-15.1,0.3-27.1,12.8-26.9,27.9c0.3,14.7,12.1,26.6,26.9,26.9h121.3
			c10.7,0.2,19.6-8.3,19.9-19c0.2-10.7-8.3-19.6-19-19.9C183,67.5,182.7,67.5,182.4,67.6L182.4,67.6z"/>
		<circle class="st1" cx="80.2" cy="133.1" r="6"/>
		<circle class="st1" cx="117.8" cy="133.1" r="6"/>
		<circle class="st1" cx="117.8" cy="181.2" r="6"/>
		<circle class="st1" cx="97.8" cy="156.6" r="6"/>
		<path class="st1" d="M144.1,156.6c0,3.3-2.7,6-6,6s-6-2.7-6-6s2.7-6,6-6S144.1,153.3,144.1,156.6z"/>
		<circle class="st1" cx="155.3" cy="133.1" r="6"/>
		<g>
			<path class="st1" d="M28,0L28,0c1.4,0,2.5,1.1,2.5,2.5v51.1c0,1.4-1.1,2.5-2.5,2.5h0c-1.4,0-2.5-1.1-2.5-2.5V2.5
				C25.6,1.1,26.7,0,28,0z"/>
			<path class="st1" d="M37.8,4.1c0.7,0.7,0.7,1.7,0,2.4l-9.7,9.7l0,0h0l-9.8-9.7c-0.7-0.6-0.7-1.7,0-2.4c0,0,0,0,0,0l1.1-1.1
				c0.6-0.7,1.7-0.7,2.4,0c0,0,0,0,0,0L26.9,8c0.6,0.7,1.7,0.7,2.4,0c0,0,0,0,0,0l5.1-5.1c0.6-0.7,1.7-0.7,2.4,0c0,0,0,0,0,0
				L37.8,4.1z"/>
			<path class="st1" d="M18.3,52c-0.7-0.6-0.7-1.7,0-2.4c0,0,0,0,0,0l9.7-9.7l0,0l0,0l9.7,9.7c0.7,0.7,0.7,1.7,0,2.4l-1.2,1.1
				c-0.7,0.7-1.7,0.7-2.4,0l-5.1-5.1c-0.7-0.7-1.7-0.7-2.4,0l-5.1,5.1c-0.7,0.7-1.7,0.7-2.4,0L18.3,52z"/>
			<path class="st1" d="M56.1,28L56.1,28c0,1.4-1.1,2.5-2.5,2.5H2.5C1.1,30.5,0,29.4,0,28v0c0-1.4,1.1-2.5,2.5-2.5h51.1
				C55,25.6,56.1,26.7,56.1,28z"/>
			<path class="st1" d="M52,37.8c-0.7,0.7-1.7,0.7-2.4,0l-9.7-9.7l0,0v0l9.7-9.7c0.6-0.7,1.7-0.7,2.4,0c0,0,0,0,0,0l1.1,1.1
				c0.7,0.7,0.7,1.7,0,2.4l-5.1,5.1c-0.7,0.7-0.7,1.7,0,2.4l5.1,5.1c0.7,0.7,0.7,1.7,0,2.4L52,37.8z"/>
			<path class="st1" d="M4.1,18.3c0.6-0.7,1.7-0.7,2.3,0c0,0,0,0,0,0l9.7,9.7l0,0l0,0l-9.7,9.8c-0.7,0.7-1.7,0.7-2.4,0l-1.1-1.1
				c-0.7-0.6-0.7-1.7,0-2.3c0,0,0,0,0,0L8,29.2c0.7-0.6,0.7-1.7,0-2.4c0,0,0,0,0,0l-5.1-5.1c-0.7-0.6-0.7-1.7,0-2.4c0,0,0,0,0,0
				L4.1,18.3z"/>
			<path class="st1" d="M14.6,39.1l24.4-24.4c0.6-0.7,1.7-0.7,2.3,0l0,0c0.7,0.7,0.7,1.7,0,2.4l0,0L17,41.4c-0.7,0.7-1.7,0.7-2.4,0
				c0,0,0,0,0,0l0,0C14,40.7,14,39.7,14.6,39.1z"/>
			<path class="st1" d="M44.2,20.7c0,0.9-0.7,1.7-1.7,1.7h-8.7l0,0l0,0v-8.8c0-0.9,0.7-1.7,1.6-1.7c0,0,0,0,0,0l0,0
				c0.9,0,1.7,0.7,1.7,1.7v3.8c0,0.9,0.7,1.6,1.6,1.6h3.8C43.4,19,44.1,19.7,44.2,20.7L44.2,20.7z"/>
			<path class="st1" d="M11.9,35.4c0-0.9,0.8-1.7,1.7-1.7h8.7l0,0l0,0v8.7c0,0.9-0.7,1.7-1.7,1.7l0,0c-0.9,0-1.7-0.7-1.7-1.6v-3.8
				c0-0.9-0.7-1.7-1.7-1.7h-3.7C12.7,37.1,11.9,36.3,11.9,35.4C11.9,35.4,11.9,35.4,11.9,35.4z"/>
			<path class="st1" d="M14.6,14.7L14.6,14.7c0.7-0.7,1.7-0.7,2.4,0l0,0l24.4,24.4c0.7,0.6,0.7,1.7,0,2.4c0,0,0,0,0,0l0,0
				c-0.7,0.7-1.7,0.7-2.4,0l0,0L14.6,17C14,16.4,14,15.3,14.6,14.7C14.6,14.7,14.6,14.7,14.6,14.7z"/>
			<path class="st1" d="M35.4,44.2c-0.9,0-1.7-0.7-1.7-1.7v-8.7l0,0l0,0h8.7c0.9,0,1.7,0.8,1.7,1.7l0,0l0,0c0,0.9-0.8,1.7-1.7,1.7
				h-3.7c-0.9,0-1.7,0.8-1.7,1.7v3.8C37,43.4,36.3,44.2,35.4,44.2L35.4,44.2z"/>
			<path class="st1" d="M20.7,11.9c0.9,0,1.7,0.7,1.7,1.7c0,0,0,0,0,0v8.7l0,0l0,0h-8.8c-0.9,0-1.7-0.7-1.7-1.6c0,0,0,0,0,0l0,0
				c0-0.9,0.7-1.7,1.7-1.7h3.8c0.9,0,1.6-0.7,1.6-1.6v-3.8C19,12.7,19.7,11.9,20.7,11.9L20.7,11.9z"/>
		</g>
	</g>
</g>
</svg>
