<svg xmlns="http://www.w3.org/2000/svg" viewBox="0 0 205.18 111.23"><defs><style>.cls-1{fill:#b9d7ff;}.cls-2{fill:#dcedff;}</style></defs><g id="Layer_2" data-name="Layer 2"><g id="Layer_1-2" data-name="Layer 1"><path class="cls-1" d="M189.07,51.22l-.2,0A24.31,24.31,0,0,0,153.61,21a33.82,33.82,0,0,0-64.9,17h-.28a22.71,22.71,0,1,0,0,45.41H189.07a16.11,16.11,0,1,0,0-32.21Z"/><path class="cls-2" d="M148.72,72.4c-.08,0-.16,0-.24,0A29.31,29.31,0,0,0,106,36,40.82,40.82,0,0,0,27.38,51.47a39.71,39.71,0,0,0,.34,5l-.34,0a27.38,27.38,0,1,0,0,54.75H148.72a19.42,19.42,0,1,0,0-38.83Z"/></g></g></svg>