<svg xmlns="http://www.w3.org/2000/svg" viewBox="0 0 168.14 188.96"><defs><style>.cls-1{fill:#b9d7ff;}.cls-2{fill:#fff800;}</style></defs><g id="Layer_2" data-name="Layer 2"><g id="Layer_1-2" data-name="Layer 1"><path class="cls-1" d="M148.72,61.76l-.24,0A29.32,29.32,0,0,0,106,25.31,40.83,40.83,0,0,0,27.38,40.83a39.55,39.55,0,0,0,.34,5h-.34a27.38,27.38,0,1,0,0,54.75H148.72a19.42,19.42,0,1,0,0-38.83Z"/><path class="cls-1" d="M36.41,148.43a13.79,13.79,0,0,1-24.85-12c3.3-6.86,24.63-19.41,24.63-19.41S39.71,141.56,36.41,148.43Z"/><path class="cls-1" d="M156.53,148.43a13.79,13.79,0,1,1-24.85-12c3.3-6.86,24.63-19.41,24.63-19.41S159.83,141.56,156.53,148.43Z"/><polygon class="cls-2" points="73.19 112.32 60.7 150.36 77.92 150.36 66.75 188.96 107.44 134.46 86.44 134.46 94.38 112.32 73.19 112.32"/></g></g></svg>