<svg xmlns="http://www.w3.org/2000/svg" viewBox="0 0 168.14 143.08"><defs><style>.cls-1{fill:#fff800;}.cls-2{fill:#dcedff;}</style></defs><g id="Layer_2" data-name="Layer 2"><g id="Layer_1-2" data-name="Layer 1"><path class="cls-1" d="M131.21,62.16a26.93,26.93,0,0,0,13-3.31,35,35,0,1,1,0-47.66,27.14,27.14,0,1,0-13,51Z"/><path class="cls-2" d="M148.72,104.25c-.08,0-.16,0-.24,0A29.31,29.31,0,0,0,106,67.81,40.82,40.82,0,0,0,27.38,83.32a39.71,39.71,0,0,0,.34,5l-.34,0a27.38,27.38,0,1,0,0,54.75H148.72a19.42,19.42,0,1,0,0-38.83Z"/></g></g></svg>