<svg xmlns="http://www.w3.org/2000/svg" viewBox="0 0 168.14 156.24"><defs><style>.cls-1{fill:#dcedff;}</style></defs><g id="Layer_2" data-name="Layer 2"><g id="Layer_1-2" data-name="Layer 1"><path class="cls-1" d="M148.72,61.76l-.24,0A29.32,29.32,0,0,0,106,25.31,40.83,40.83,0,0,0,27.38,40.83a39.55,39.55,0,0,0,.34,5h-.34a27.38,27.38,0,1,0,0,54.75H148.72a19.42,19.42,0,1,0,0-38.83Z"/><path class="cls-1" d="M53.8,148.43a13.78,13.78,0,1,1-24.84-12c3.29-6.86,24.62-19.41,24.62-19.41S57.1,141.56,53.8,148.43Z"/><path class="cls-1" d="M88.08,148.43a13.79,13.79,0,0,1-24.85-12c3.3-6.86,24.63-19.41,24.63-19.41S91.38,141.56,88.08,148.43Z"/><path class="cls-1" d="M122.84,148.43a13.79,13.79,0,0,1-24.85-12c3.3-6.86,24.63-19.41,24.63-19.41S126.14,141.56,122.84,148.43Z"/></g></g></svg>