<?xml version="1.0" encoding="utf-8"?>
<!-- Generator: Adobe Illustrator 24.1.2, SVG Export Plug-In . SVG Version: 6.00 Build 0)  -->
<svg version="1.1" id="Layer_1" xmlns="http://www.w3.org/2000/svg" xmlns:xlink="http://www.w3.org/1999/xlink" x="0px" y="0px"
	 viewBox="0 0 213.5 154.4" style="enable-background:new 0 0 213.5 154.4;" xml:space="preserve">
<style type="text/css">
	.st0{fill:#2B8EAD;}
	.st1{fill:#003854;}
</style>
<g id="Layer_2_1_">
	<g id="Layer_1-2">
		<path class="st0" d="M197.4,51.2h-0.2c5.3-12.3-0.3-26.6-12.6-32c-7.4-3.2-15.8-2.5-22.6,1.7C155,3.6,135.4-4.8,118,2.1
			C103.6,7.8,94.9,22.6,97,38h-0.3c-12.5,0.3-22.5,10.6-22.2,23.2c0.3,12.2,10.1,22,22.2,22.2h100.7c8.9-0.2,15.9-7.6,15.7-16.5
			C212.9,58.3,206,51.4,197.4,51.2L197.4,51.2z"/>
		<path class="st1" d="M157,72.4c-0.1,0-0.2,0-0.3,0c6.4-14.9-0.5-32.1-15.4-38.5c-8.8-3.8-18.9-3-27.1,2.1
			C105.7,15.1,81.9,5.2,61,13.7C45.7,20,35.7,34.9,35.7,51.5c0,1.7,0.1,3.3,0.3,5h-0.3C20.6,56.2,8.1,68.2,7.8,83.3
			c-0.3,15.1,11.7,27.6,26.9,27.9c0.3,0,0.7,0,1,0H157c10.7-0.2,19.2-9.1,19-19.9C175.7,81,167.4,72.6,157,72.4L157,72.4z"/>
		<path class="st0" d="M78.3,119.4H3.4c-1.9-0.1-3.4,1.3-3.5,3.2s1.3,3.4,3.2,3.5c0.1,0,0.2,0,0.4,0h74.9c1.9-0.1,3.3-1.7,3.2-3.5
			C81.4,120.9,80,119.5,78.3,119.4z"/>
		<path class="st0" d="M140.7,119.4h-31c-0.8,0-1.4,1.5-1.4,3.4s0.6,3.4,1.4,3.4h31c0.8,0,1.4-1.5,1.4-3.4S141.5,119.4,140.7,119.4z
			"/>
		<path class="st0" d="M114.9,134.2H40c-1.9,0-3.4,1.5-3.4,3.4c0,1.9,1.5,3.4,3.4,3.4h74.9c1.9,0.1,3.4-1.3,3.5-3.2
			c0.1-1.9-1.3-3.4-3.2-3.5C115.2,134.3,115.1,134.3,114.9,134.2L114.9,134.2z"/>
		<path class="st0" d="M175.3,147.7h-74.9c-1.9-0.1-3.4,1.3-3.5,3.2c-0.1,1.9,1.3,3.4,3.2,3.5c0.1,0,0.2,0,0.4,0h74.9
			c1.9-0.1,3.3-1.7,3.2-3.5C178.4,149.1,177,147.8,175.3,147.7z"/>
		<path class="st0" d="M60.6,147.3H15.6c-1.1,0-2,1.5-2,3.4s0.9,3.4,2,3.4h45.1c1.1,0,2-1.5,2-3.4S61.8,147.3,60.6,147.3z"/>
		<path class="st0" d="M179.2,134.2h-45.1c-1.1,0-2,1.5-2,3.4s0.9,3.4,2,3.4h45.1c1.1,0,2-1.5,2-3.4S180.3,134.2,179.2,134.2z"/>
	</g>
</g>
</svg>
