<?xml version="1.0" encoding="utf-8"?>
<!-- Generator: Adobe Illustrator 24.1.2, SVG Export Plug-In . SVG Version: 6.00 Build 0)  -->
<svg version="1.1" id="Layer_1" xmlns="http://www.w3.org/2000/svg" xmlns:xlink="http://www.w3.org/1999/xlink" x="0px" y="0px"
	 viewBox="0 0 168.1 156.2" style="enable-background:new 0 0 168.1 156.2;" xml:space="preserve">
<style type="text/css">
	.st0{fill:#FFF800;}
	.st1{fill:#003854;}
	.st2{fill:#2B8EAD;}
</style>
<g>
	<g id="Layer_2_1_">
		<g id="Layer_1-2">
			<g>
				<circle class="st0" cx="111.9" cy="56.6" r="22.7"/>
				<path class="st0" d="M111.9,25.2c-1.5,0-2.8-1.2-2.7-2.7V3.1l0,0c0-1.5,1.2-2.7,2.7-2.7l0,0c1.5,0,2.7,1.2,2.7,2.7v19.4
					C114.6,24,113.4,25.2,111.9,25.2L111.9,25.2C111.9,25.2,111.8,25.2,111.9,25.2z"/>
				<path class="st0" d="M111.9,112.9c-1.5,0-2.8-1.2-2.7-2.7V90.8l0,0c0-1.5,1.2-2.7,2.7-2.7l0,0l0,0c1.5,0,2.7,1.2,2.7,2.7v19.4
					l0,0C114.6,111.7,113.4,112.9,111.9,112.9L111.9,112.9L111.9,112.9z"/>
				<path class="st0" d="M89.8,34.5c-1.2,1.1-2.9,1.1-3.9,0L72.3,20.7l0,0c-1-1-1-2.8,0-3.8l0,0l0,0c1-1,2.8-1,3.8,0l13.7,13.8l0,0
					C90.8,31.7,90.8,33.5,89.8,34.5L89.8,34.5L89.8,34.5z"/>
				<path class="st0" d="M151.7,96.4c-1.1,1.1-2.8,1.1-3.9,0l-13.6-13.8l0,0c-1-1-1-2.8,0-3.8l0,0l0,0c1-1,2.8-1,3.8,0l13.7,13.8
					l0,0C152.7,93.6,152.7,95.4,151.7,96.4L151.7,96.4L151.7,96.4z"/>
				<path class="st0" d="M77.7,59.3H58.4l0,0c-1.5,0-2.7-1.2-2.7-2.7l0,0c0-1.5,1.2-2.7,2.7-2.7h19.4l0,0c1.5,0,2.7,1.2,2.7,2.7l0,0
					C80.5,58.2,79.4,59.4,77.7,59.3z"/>
				<path class="st0" d="M168.1,56.6c0,1.6-1.1,2.8-2.7,2.7h-19.3l0,0c-1.5,0-2.7-1.2-2.7-2.7l0,0l0,0c0-1.5,1.2-2.7,2.7-2.7h19.3
					C166.9,53.9,168.1,55.1,168.1,56.6L168.1,56.6L168.1,56.6z"/>
				<path class="st0" d="M89.8,78.8c1,1.1,1,2.8,0,3.9L76.1,96.3l0,0c-1,1-2.8,1-3.8,0l0,0l0,0c-1-1-1-2.8,0-3.8L86,78.8l0,0
					C87,77.8,88.8,77.8,89.8,78.8L89.8,78.8L89.8,78.8z"/>
				<path class="st0" d="M151.7,16.9c1.1,1.1,1.1,2.8,0,3.9l-13.8,13.7l0,0c-1,1-2.8,1-3.8,0l0,0c-0.1-0.1-0.1-0.1-0.1-0.1
					c-1-1-0.9-2.8,0.1-3.8l13.8-13.7l0,0C148.9,15.9,150.7,15.9,151.7,16.9L151.7,16.9C151.8,16.9,151.8,16.9,151.7,16.9z"/>
			</g>
		</g>
	</g>
	<path class="st1" d="M112.8,79.8h-0.1c4.8-11.3-0.3-24.2-11.5-29.1c-6.7-2.9-14.4-2.3-20.5,1.6c-6.3-15.7-24.3-23.4-40.1-16.9
		c-13.2,5.2-21,18.6-19.2,32.4h-0.2C9.7,67.6,0.2,76.6,0,88.1s8.9,20.9,20.3,21.1c0.3,0,0.6,0,0.9,0h91.5
		c8.2,0.2,14.9-6.3,15.1-14.3c0.2-8.1-6.3-14.9-14.3-15.1C113.2,79.8,113,79.8,112.8,79.8L112.8,79.8z"/>
	<path class="st2" d="M46.2,124.9c-0.3,0-0.5,0-0.8,0c-8.8,0.2-15.7,7.4-15.5,16.2s7.4,15.7,16.2,15.5h99.1c0.3,0,0.6,0,0.9,0
		c12.4-0.2,22.2-10.4,22-22.8s-10.4-22.2-22.8-21.9H145c0.2-1.4,0.3-2.7,0.3-4.1c0-13.6-8.1-25.8-20.7-30.9
		c-17.1-6.9-36.5,1.2-43.5,18.3C74.5,91,66.2,90.4,59,93.5c-12.2,5.2-17.8,19.2-12.6,31.4C46.3,124.9,46.3,124.9,46.2,124.9
		L46.2,124.9z"/>
</g>
</svg>
