<svg xmlns="http://www.w3.org/2000/svg" viewBox="0 0 213.49 154.41"><defs><style>.cls-1{fill:#b9d7ff;}.cls-2{fill:#dcedff;}</style></defs><g id="Layer_2" data-name="Layer 2"><g id="Layer_1-2" data-name="Layer 1"><path class="cls-1" d="M197.39,51.22l-.21,0A24.3,24.3,0,0,0,161.93,21,33.81,33.81,0,0,0,97,38h-.29a22.71,22.71,0,0,0,0,45.41H197.39a16.11,16.11,0,0,0,0-32.21Z"/><path class="cls-2" d="M157,72.4c-.09,0-.16,0-.25,0A29.31,29.31,0,0,0,114.28,36,40.82,40.82,0,0,0,35.69,51.47a41.65,41.65,0,0,0,.34,5l-.34,0a27.38,27.38,0,1,0,0,54.75H157a19.42,19.42,0,0,0,0-38.83Z"/><path class="cls-2" d="M78.3,119.42H3.37a3.37,3.37,0,1,0,0,6.73H78.3a3.37,3.37,0,0,0,0-6.73Z"/><path class="cls-2" d="M140.69,119.42h-31c-.77,0-1.39,1.51-1.39,3.37s.62,3.36,1.39,3.36h31c.77,0,1.4-1.5,1.4-3.36S141.46,119.42,140.69,119.42Z"/><path class="cls-2" d="M114.89,134.23H40A3.37,3.37,0,0,0,40,141h74.93a3.37,3.37,0,1,0,0-6.73Z"/><path class="cls-2" d="M175.32,147.68H100.39a3.37,3.37,0,1,0,0,6.73h74.93a3.37,3.37,0,0,0,0-6.73Z"/><path class="cls-2" d="M60.63,147.25H15.56c-1.12,0-2,1.51-2,3.37s.91,3.36,2,3.36H60.63c1.12,0,2-1.5,2-3.36S61.75,147.25,60.63,147.25Z"/><path class="cls-2" d="M179.17,134.23H134.09c-1.12,0-2,1.51-2,3.37s.9,3.36,2,3.36h45.08c1.11,0,2-1.51,2-3.36S180.28,134.23,179.17,134.23Z"/></g></g></svg>