<?xml version="1.0" encoding="utf-8"?>
<!-- Generator: Adobe Illustrator 24.1.2, SVG Export Plug-In . SVG Version: 6.00 Build 0)  -->
<svg version="1.1" id="Layer_1" xmlns="http://www.w3.org/2000/svg" xmlns:xlink="http://www.w3.org/1999/xlink" x="0px" y="0px"
	 viewBox="0 0 203 148.7" style="enable-background:new 0 0 203 148.7;" xml:space="preserve">
<style type="text/css">
	.st0{fill:#FFF800;}
	.st1{fill:#003854;}
</style>
<g id="Layer_2_1_">
	<g id="Layer_1-2">
		<circle class="st0" cx="64.3" cy="64.3" r="26"/>
		<path class="st0" d="M64.3,28.4L64.3,28.4c-1.7,0-3.1-1.4-3.1-3.1V3.1c0-1.7,1.4-3.1,3.1-3.1l0,0c1.7,0,3.1,1.4,3.1,3.1
			c0,0,0,0,0,0v22.2C67.5,27,66.1,28.4,64.3,28.4C64.4,28.4,64.3,28.4,64.3,28.4z"/>
		<path class="st0" d="M64.3,128.7L64.3,128.7c-1.7,0-3.1-1.4-3.1-3.1l0,0v-22.2c0-1.7,1.4-3.1,3.1-3.1l0,0l0,0
			c1.7,0,3.1,1.4,3.1,3.1v0v22.2C67.5,127.3,66.1,128.7,64.3,128.7C64.3,128.7,64.3,128.7,64.3,128.7z"/>
		<path class="st0" d="M89.7,39L89.7,39c-1.2-1.2-1.2-3.2,0-4.4c0,0,0,0,0,0l15.7-15.7c1.2-1.2,3.2-1.2,4.4,0c0,0,0,0,0,0l0,0
			c1.2,1.2,1.2,3.2,0,4.4c0,0,0,0,0,0L94.2,39C92.9,40.2,91,40.2,89.7,39C89.7,39,89.7,39,89.7,39z"/>
		<path class="st0" d="M18.9,109.8L18.9,109.8c-1.2-1.2-1.2-3.2,0-4.4c0,0,0,0,0,0l15.7-15.7c1.2-1.2,3.2-1.2,4.4,0c0,0,0,0,0,0l0,0
			c1.2,1.2,1.2,3.2,0,4.4c0,0,0,0,0,0l-15.7,15.7C22,111.1,20.1,111.1,18.9,109.8C18.9,109.8,18.9,109.8,18.9,109.8z"/>
		<path class="st0" d="M100.3,64.3L100.3,64.3c0-1.7,1.4-3.1,3.1-3.1l0,0h22.2c1.7,0,3.1,1.4,3.1,3.1l0,0c0,1.7-1.4,3.1-3.1,3.1h0
			h-22.2C101.6,67.5,100.3,66.1,100.3,64.3z"/>
		<path class="st0" d="M0,64.3L0,64.3c0-1.7,1.4-3.1,3.1-3.1h22.2c1.7,0,3.1,1.4,3.1,3.1l0,0l0,0c0,1.7-1.4,3.1-3.1,3.1c0,0,0,0,0,0
			H3.1C1.4,67.5,0,66.1,0,64.3C0,64.3,0,64.3,0,64.3z"/>
		<path class="st0" d="M89.7,89.7L89.7,89.7c1.2-1.2,3.2-1.2,4.4,0c0,0,0,0,0,0l15.7,15.7c1.2,1.2,1.2,3.2,0,4.4c0,0,0,0,0,0l0,0
			c-1.2,1.2-3.2,1.2-4.4,0c0,0,0,0,0,0L89.7,94.2C88.5,92.9,88.5,91,89.7,89.7C89.7,89.7,89.7,89.7,89.7,89.7z"/>
		<path class="st0" d="M18.9,18.9L18.9,18.9c1.2-1.2,3.2-1.2,4.4,0c0,0,0,0,0,0L39,34.5c1.2,1.2,1.3,3.2,0.1,4.4c0,0,0,0-0.1,0.1
			l0,0c-1.2,1.2-3.2,1.2-4.4,0c0,0,0,0,0,0L18.9,23.3C17.6,22,17.6,20.1,18.9,18.9C18.8,18.9,18.8,18.9,18.9,18.9z"/>
		<path class="st1" d="M183.6,109.8h-0.2c6.4-14.9-0.4-32.1-15.2-38.6c-8.9-3.8-19.1-3.1-27.3,2.1c-8.6-20.9-32.4-30.8-53.3-22.2
			c-15.3,6.3-25.3,21.2-25.3,37.8c0,1.7,0.1,3.3,0.3,5h-0.3c-15.1,0.3-27.1,12.8-26.9,27.9c0.3,14.7,12.1,26.6,26.9,26.9h121.4
			c10.7,0.2,19.6-8.3,19.9-19c0.2-10.7-8.3-19.6-19-19.9C184.2,109.8,183.9,109.8,183.6,109.8L183.6,109.8z"/>
	</g>
</g>
</svg>
